<mxfile host="app.diagrams.net" agent="Mozilla/5.0 (Windows NT 10.0; Win64; x64) AppleWebKit/537.36 (KHTML, like Gecko) Chrome/127.0.0.0 Safari/537.36" version="24.7.7">
  <diagram name="Page-1" id="I7pWjkquTIe3RNS9W7hb">
    <mxGraphModel dx="2901" dy="1106" grid="1" gridSize="10" guides="1" tooltips="1" connect="1" arrows="1" fold="1" page="1" pageScale="1" pageWidth="827" pageHeight="1169" math="0" shadow="0">
      <root>
        <mxCell id="0" />
        <mxCell id="1" parent="0" />
        <mxCell id="8-iE3QzW0I2eiYtSppjK-1" value="" style="shape=image;html=1;verticalAlign=top;verticalLabelPosition=bottom;labelBackgroundColor=#ffffff;imageAspect=0;aspect=fixed;image=https://cdn2.iconfinder.com/data/icons/office-icon-set-3/128/users.png" parent="1" vertex="1">
          <mxGeometry x="-565" y="290" width="50" height="50" as="geometry" />
        </mxCell>
        <mxCell id="8-iE3QzW0I2eiYtSppjK-3" value="Assessment Master" style="swimlane;startSize=20;horizontal=1;childLayout=flowLayout;flowOrientation=north;resizable=0;interRankCellSpacing=50;containerType=tree;fontSize=12;dashed=1;" parent="1" vertex="1">
          <mxGeometry x="-610" y="350" width="140" height="190" as="geometry" />
        </mxCell>
        <mxCell id="8-iE3QzW0I2eiYtSppjK-7" value="Exam" style="whiteSpace=wrap;html=1;fillColor=#dae8fc;strokeColor=#6c8ebf;" parent="8-iE3QzW0I2eiYtSppjK-3" vertex="1">
          <mxGeometry x="20" y="130" width="100" height="40" as="geometry" />
        </mxCell>
        <mxCell id="8-iE3QzW0I2eiYtSppjK-4" value="Learner" style="whiteSpace=wrap;html=1;fillColor=#dae8fc;strokeColor=#6c8ebf;" parent="8-iE3QzW0I2eiYtSppjK-3" vertex="1">
          <mxGeometry x="20" y="40" width="100" height="40" as="geometry" />
        </mxCell>
        <mxCell id="8-iE3QzW0I2eiYtSppjK-8" value="" style="html=1;rounded=1;curved=0;sourcePerimeterSpacing=0;targetPerimeterSpacing=0;startSize=6;endSize=6;noEdgeStyle=1;orthogonal=1;" parent="8-iE3QzW0I2eiYtSppjK-3" source="8-iE3QzW0I2eiYtSppjK-4" target="8-iE3QzW0I2eiYtSppjK-7" edge="1">
          <mxGeometry relative="1" as="geometry">
            <Array as="points">
              <mxPoint x="70" y="92" />
              <mxPoint x="70" y="118" />
            </Array>
          </mxGeometry>
        </mxCell>
        <mxCell id="8-iE3QzW0I2eiYtSppjK-15" value="" style="shape=singleArrow;whiteSpace=wrap;html=1;arrowWidth=0.4;arrowSize=0.4;fontStyle=1;startSize=20;resizable=0;fillColor=#dae8fc;strokeColor=#6c8ebf;" parent="1" vertex="1">
          <mxGeometry x="-460" y="410" width="80" height="60" as="geometry" />
        </mxCell>
        <mxCell id="8-iE3QzW0I2eiYtSppjK-17" value="Assessment Master" style="swimlane;startSize=20;horizontal=1;childLayout=flowLayout;flowOrientation=north;resizable=0;interRankCellSpacing=50;containerType=tree;fontSize=12;dashed=1;" parent="1" vertex="1">
          <mxGeometry x="-380" y="350" width="435" height="280" as="geometry" />
        </mxCell>
        <mxCell id="8-iE3QzW0I2eiYtSppjK-18" value="Exam" style="whiteSpace=wrap;html=1;fillColor=#dae8fc;strokeColor=#6c8ebf;" parent="8-iE3QzW0I2eiYtSppjK-17" vertex="1">
          <mxGeometry x="167.5" y="220" width="100" height="40" as="geometry" />
        </mxCell>
        <mxCell id="8-iE3QzW0I2eiYtSppjK-19" value="Learner" style="whiteSpace=wrap;html=1;fillColor=#dae8fc;strokeColor=#6c8ebf;" parent="8-iE3QzW0I2eiYtSppjK-17" vertex="1">
          <mxGeometry x="285" y="130" width="100" height="40" as="geometry" />
        </mxCell>
        <mxCell id="8-iE3QzW0I2eiYtSppjK-20" value="" style="html=1;rounded=1;curved=0;sourcePerimeterSpacing=0;targetPerimeterSpacing=0;startSize=6;endSize=6;noEdgeStyle=1;orthogonal=1;fillColor=#dae8fc;strokeColor=#6c8ebf;" parent="8-iE3QzW0I2eiYtSppjK-17" source="8-iE3QzW0I2eiYtSppjK-19" target="8-iE3QzW0I2eiYtSppjK-18" edge="1">
          <mxGeometry relative="1" as="geometry">
            <Array as="points">
              <mxPoint x="335" y="182" />
              <mxPoint x="235.5" y="206" />
            </Array>
          </mxGeometry>
        </mxCell>
        <mxCell id="8-iE3QzW0I2eiYtSppjK-23" style="edgeStyle=orthogonalEdgeStyle;rounded=0;orthogonalLoop=1;jettySize=auto;html=1;exitX=0;exitY=0.5;exitDx=0;exitDy=0;entryX=1;entryY=0.5;entryDx=0;entryDy=0;noEdgeStyle=1;orthogonal=1;" parent="8-iE3QzW0I2eiYtSppjK-17" source="8-iE3QzW0I2eiYtSppjK-21" target="8-iE3QzW0I2eiYtSppjK-18" edge="1">
          <mxGeometry relative="1" as="geometry">
            <Array as="points">
              <mxPoint x="70" y="182" />
              <mxPoint x="181.5" y="208" />
            </Array>
          </mxGeometry>
        </mxCell>
        <mxCell id="8-iE3QzW0I2eiYtSppjK-21" value="Designer" style="whiteSpace=wrap;html=1;fillColor=#dae8fc;strokeColor=#6c8ebf;" parent="8-iE3QzW0I2eiYtSppjK-17" vertex="1">
          <mxGeometry x="20" y="130" width="100" height="40" as="geometry" />
        </mxCell>
        <mxCell id="8-iE3QzW0I2eiYtSppjK-24" style="edgeStyle=orthogonalEdgeStyle;rounded=0;orthogonalLoop=1;jettySize=auto;html=1;entryX=1;entryY=0.5;entryDx=0;entryDy=0;noEdgeStyle=1;orthogonal=1;fillColor=#dae8fc;strokeColor=#6c8ebf;" parent="8-iE3QzW0I2eiYtSppjK-17" source="8-iE3QzW0I2eiYtSppjK-22" target="8-iE3QzW0I2eiYtSppjK-18" edge="1">
          <mxGeometry relative="1" as="geometry">
            <Array as="points">
              <mxPoint x="152.5" y="92" />
              <mxPoint x="150" y="105" />
              <mxPoint x="150" y="195" />
              <mxPoint x="199.5" y="206" />
            </Array>
          </mxGeometry>
        </mxCell>
        <mxCell id="8-iE3QzW0I2eiYtSppjK-26" style="edgeStyle=orthogonalEdgeStyle;rounded=0;orthogonalLoop=1;jettySize=auto;html=1;noEdgeStyle=1;orthogonal=1;fillColor=#dae8fc;strokeColor=#6c8ebf;" parent="8-iE3QzW0I2eiYtSppjK-17" source="8-iE3QzW0I2eiYtSppjK-22" target="8-iE3QzW0I2eiYtSppjK-25" edge="1">
          <mxGeometry relative="1" as="geometry">
            <Array as="points">
              <mxPoint x="182.5" y="92" />
              <mxPoint x="217.5" y="118" />
            </Array>
          </mxGeometry>
        </mxCell>
        <mxCell id="8-iE3QzW0I2eiYtSppjK-22" value="Admin" style="whiteSpace=wrap;html=1;fillColor=#dae8fc;strokeColor=#6c8ebf;" parent="8-iE3QzW0I2eiYtSppjK-17" vertex="1">
          <mxGeometry x="132.5" y="40" width="70" height="40" as="geometry" />
        </mxCell>
        <mxCell id="8-iE3QzW0I2eiYtSppjK-28" style="edgeStyle=orthogonalEdgeStyle;rounded=0;orthogonalLoop=1;jettySize=auto;html=1;noEdgeStyle=1;orthogonal=1;fillColor=#dae8fc;strokeColor=#6c8ebf;" parent="8-iE3QzW0I2eiYtSppjK-17" source="8-iE3QzW0I2eiYtSppjK-25" target="8-iE3QzW0I2eiYtSppjK-18" edge="1">
          <mxGeometry relative="1" as="geometry">
            <Array as="points">
              <mxPoint x="217.5" y="182" />
              <mxPoint x="217.5" y="204" />
            </Array>
          </mxGeometry>
        </mxCell>
        <mxCell id="8-iE3QzW0I2eiYtSppjK-25" value="Exam item" style="whiteSpace=wrap;html=1;fillColor=#dae8fc;strokeColor=#6c8ebf;" parent="8-iE3QzW0I2eiYtSppjK-17" vertex="1">
          <mxGeometry x="180" y="130" width="75" height="40" as="geometry" />
        </mxCell>
        <mxCell id="8-iE3QzW0I2eiYtSppjK-30" style="edgeStyle=orthogonalEdgeStyle;rounded=0;orthogonalLoop=1;jettySize=auto;html=1;noEdgeStyle=1;orthogonal=1;fillColor=#dae8fc;strokeColor=#6c8ebf;" parent="8-iE3QzW0I2eiYtSppjK-17" source="8-iE3QzW0I2eiYtSppjK-29" target="8-iE3QzW0I2eiYtSppjK-19" edge="1">
          <mxGeometry relative="1" as="geometry">
            <Array as="points">
              <mxPoint x="360" y="92" />
              <mxPoint x="335" y="118" />
            </Array>
          </mxGeometry>
        </mxCell>
        <mxCell id="8-iE3QzW0I2eiYtSppjK-62" style="edgeStyle=orthogonalEdgeStyle;rounded=0;orthogonalLoop=1;jettySize=auto;html=1;entryX=1;entryY=0.5;entryDx=0;entryDy=0;noEdgeStyle=1;orthogonal=1;fillColor=#dae8fc;strokeColor=#6c8ebf;" parent="8-iE3QzW0I2eiYtSppjK-17" source="8-iE3QzW0I2eiYtSppjK-29" target="8-iE3QzW0I2eiYtSppjK-18" edge="1">
          <mxGeometry relative="1" as="geometry">
            <Array as="points">
              <mxPoint x="390" y="92" />
              <mxPoint x="415" y="105" />
              <mxPoint x="415" y="195" />
              <mxPoint x="253.5" y="208" />
            </Array>
          </mxGeometry>
        </mxCell>
        <mxCell id="8-iE3QzW0I2eiYtSppjK-29" value="Teacher" style="whiteSpace=wrap;html=1;fillColor=#dae8fc;strokeColor=#6c8ebf;" parent="8-iE3QzW0I2eiYtSppjK-17" vertex="1">
          <mxGeometry x="340" y="40" width="70" height="40" as="geometry" />
        </mxCell>
        <mxCell id="8-iE3QzW0I2eiYtSppjK-31" value="" style="shape=image;html=1;verticalAlign=top;verticalLabelPosition=bottom;labelBackgroundColor=#ffffff;imageAspect=0;aspect=fixed;image=https://cdn2.iconfinder.com/data/icons/office-icon-set-3/128/users.png" parent="1" vertex="1">
          <mxGeometry x="-210" y="270" width="50" height="50" as="geometry" />
        </mxCell>
        <mxCell id="8-iE3QzW0I2eiYtSppjK-32" value="" style="shape=image;html=1;verticalAlign=top;verticalLabelPosition=bottom;labelBackgroundColor=#ffffff;imageAspect=0;aspect=fixed;image=https://cdn2.iconfinder.com/data/icons/office-icon-set-3/128/users.png" parent="1" vertex="1">
          <mxGeometry x="-170" y="290" width="50" height="50" as="geometry" />
        </mxCell>
        <mxCell id="8-iE3QzW0I2eiYtSppjK-33" value="" style="shape=image;html=1;verticalAlign=top;verticalLabelPosition=bottom;labelBackgroundColor=#ffffff;imageAspect=0;aspect=fixed;image=https://cdn2.iconfinder.com/data/icons/office-icon-set-3/128/users.png" parent="1" vertex="1">
          <mxGeometry x="-260" y="290" width="50" height="50" as="geometry" />
        </mxCell>
        <mxCell id="8-iE3QzW0I2eiYtSppjK-34" value="Assessment Master" style="swimlane;startSize=20;horizontal=1;childLayout=flowLayout;flowOrientation=north;resizable=0;interRankCellSpacing=50;containerType=tree;fontSize=12;dashed=1;" parent="1" vertex="1">
          <mxGeometry x="135" y="350" width="565" height="460" as="geometry" />
        </mxCell>
        <mxCell id="8-iE3QzW0I2eiYtSppjK-53" style="edgeStyle=orthogonalEdgeStyle;rounded=0;orthogonalLoop=1;jettySize=auto;html=1;exitX=1;exitY=0.5;exitDx=0;exitDy=0;entryX=0;entryY=0.5;entryDx=0;entryDy=0;noEdgeStyle=1;orthogonal=1;fillColor=#dae8fc;strokeColor=#6c8ebf;" parent="8-iE3QzW0I2eiYtSppjK-34" source="8-iE3QzW0I2eiYtSppjK-35" target="8-iE3QzW0I2eiYtSppjK-51" edge="1">
          <mxGeometry relative="1" as="geometry">
            <Array as="points">
              <mxPoint x="172.5" y="272" />
              <mxPoint x="195.625" y="296" />
            </Array>
          </mxGeometry>
        </mxCell>
        <mxCell id="8-iE3QzW0I2eiYtSppjK-35" value="Exam" style="whiteSpace=wrap;html=1;fillColor=#dae8fc;strokeColor=#6c8ebf;" parent="8-iE3QzW0I2eiYtSppjK-34" vertex="1">
          <mxGeometry x="122.5" y="220" width="100" height="40" as="geometry" />
        </mxCell>
        <mxCell id="8-iE3QzW0I2eiYtSppjK-52" style="edgeStyle=orthogonalEdgeStyle;rounded=0;orthogonalLoop=1;jettySize=auto;html=1;noEdgeStyle=1;orthogonal=1;fillColor=#dae8fc;strokeColor=#6c8ebf;" parent="8-iE3QzW0I2eiYtSppjK-34" source="8-iE3QzW0I2eiYtSppjK-36" target="8-iE3QzW0I2eiYtSppjK-51" edge="1">
          <mxGeometry relative="1" as="geometry">
            <Array as="points">
              <mxPoint x="382.5" y="182" />
              <mxPoint x="252.5" y="195" />
              <mxPoint x="252.5" y="285" />
              <mxPoint x="215.625" y="298" />
            </Array>
          </mxGeometry>
        </mxCell>
        <mxCell id="8-iE3QzW0I2eiYtSppjK-36" value="Learner" style="whiteSpace=wrap;html=1;fillColor=#dae8fc;strokeColor=#6c8ebf;" parent="8-iE3QzW0I2eiYtSppjK-34" vertex="1">
          <mxGeometry x="310" y="130" width="100" height="40" as="geometry" />
        </mxCell>
        <mxCell id="8-iE3QzW0I2eiYtSppjK-37" value="" style="html=1;rounded=1;curved=0;sourcePerimeterSpacing=0;targetPerimeterSpacing=0;startSize=6;endSize=6;noEdgeStyle=1;orthogonal=1;fillColor=#dae8fc;strokeColor=#6c8ebf;" parent="8-iE3QzW0I2eiYtSppjK-34" source="8-iE3QzW0I2eiYtSppjK-36" target="8-iE3QzW0I2eiYtSppjK-35" edge="1">
          <mxGeometry relative="1" as="geometry">
            <Array as="points">
              <mxPoint x="337.5" y="182" />
              <mxPoint x="190.5" y="206" />
            </Array>
          </mxGeometry>
        </mxCell>
        <mxCell id="8-iE3QzW0I2eiYtSppjK-38" style="edgeStyle=orthogonalEdgeStyle;rounded=0;orthogonalLoop=1;jettySize=auto;html=1;exitX=0;exitY=0.5;exitDx=0;exitDy=0;entryX=1;entryY=0.5;entryDx=0;entryDy=0;noEdgeStyle=1;orthogonal=1;fillColor=#dae8fc;strokeColor=#6c8ebf;" parent="8-iE3QzW0I2eiYtSppjK-34" source="8-iE3QzW0I2eiYtSppjK-39" target="8-iE3QzW0I2eiYtSppjK-35" edge="1">
          <mxGeometry relative="1" as="geometry">
            <Array as="points">
              <mxPoint x="230" y="182" />
              <mxPoint x="172.5" y="204" />
            </Array>
          </mxGeometry>
        </mxCell>
        <mxCell id="8-iE3QzW0I2eiYtSppjK-39" value="Designer" style="whiteSpace=wrap;html=1;fillColor=#dae8fc;strokeColor=#6c8ebf;" parent="8-iE3QzW0I2eiYtSppjK-34" vertex="1">
          <mxGeometry x="180" y="130" width="100" height="40" as="geometry" />
        </mxCell>
        <mxCell id="8-iE3QzW0I2eiYtSppjK-40" style="edgeStyle=orthogonalEdgeStyle;rounded=0;orthogonalLoop=1;jettySize=auto;html=1;entryX=1;entryY=0.5;entryDx=0;entryDy=0;noEdgeStyle=1;orthogonal=1;fillColor=#dae8fc;strokeColor=#6c8ebf;" parent="8-iE3QzW0I2eiYtSppjK-34" source="8-iE3QzW0I2eiYtSppjK-42" target="8-iE3QzW0I2eiYtSppjK-35" edge="1">
          <mxGeometry relative="1" as="geometry">
            <Array as="points">
              <mxPoint x="120" y="94" />
              <mxPoint x="120" y="105" />
              <mxPoint x="120" y="195" />
              <mxPoint x="136.5" y="208" />
            </Array>
          </mxGeometry>
        </mxCell>
        <mxCell id="8-iE3QzW0I2eiYtSppjK-41" style="edgeStyle=orthogonalEdgeStyle;rounded=0;orthogonalLoop=1;jettySize=auto;html=1;noEdgeStyle=1;orthogonal=1;fillColor=#dae8fc;strokeColor=#6c8ebf;" parent="8-iE3QzW0I2eiYtSppjK-34" source="8-iE3QzW0I2eiYtSppjK-42" target="8-iE3QzW0I2eiYtSppjK-44" edge="1">
          <mxGeometry relative="1" as="geometry">
            <Array as="points">
              <mxPoint x="140" y="92" />
              <mxPoint x="461.25" y="118" />
            </Array>
          </mxGeometry>
        </mxCell>
        <mxCell id="8-iE3QzW0I2eiYtSppjK-55" style="edgeStyle=orthogonalEdgeStyle;rounded=0;orthogonalLoop=1;jettySize=auto;html=1;noEdgeStyle=1;orthogonal=1;fillColor=#dae8fc;strokeColor=#6c8ebf;" parent="8-iE3QzW0I2eiYtSppjK-34" source="8-iE3QzW0I2eiYtSppjK-42" target="8-iE3QzW0I2eiYtSppjK-54" edge="1">
          <mxGeometry relative="1" as="geometry">
            <Array as="points">
              <mxPoint x="100" y="92" />
              <mxPoint x="40" y="118" />
            </Array>
          </mxGeometry>
        </mxCell>
        <mxCell id="8-iE3QzW0I2eiYtSppjK-42" value="Admin" style="whiteSpace=wrap;html=1;fillColor=#dae8fc;strokeColor=#6c8ebf;" parent="8-iE3QzW0I2eiYtSppjK-34" vertex="1">
          <mxGeometry x="85" y="40" width="70" height="40" as="geometry" />
        </mxCell>
        <mxCell id="8-iE3QzW0I2eiYtSppjK-43" style="edgeStyle=orthogonalEdgeStyle;rounded=0;orthogonalLoop=1;jettySize=auto;html=1;noEdgeStyle=1;orthogonal=1;fillColor=#dae8fc;strokeColor=#6c8ebf;" parent="8-iE3QzW0I2eiYtSppjK-34" source="8-iE3QzW0I2eiYtSppjK-44" target="8-iE3QzW0I2eiYtSppjK-35" edge="1">
          <mxGeometry relative="1" as="geometry">
            <Array as="points">
              <mxPoint x="451.5" y="182" />
              <mxPoint x="208.5" y="208" />
            </Array>
          </mxGeometry>
        </mxCell>
        <mxCell id="8-iE3QzW0I2eiYtSppjK-60" style="edgeStyle=orthogonalEdgeStyle;rounded=0;orthogonalLoop=1;jettySize=auto;html=1;noEdgeStyle=1;orthogonal=1;fillColor=#dae8fc;strokeColor=#6c8ebf;" parent="8-iE3QzW0I2eiYtSppjK-34" source="8-iE3QzW0I2eiYtSppjK-44" target="8-iE3QzW0I2eiYtSppjK-58" edge="1">
          <mxGeometry relative="1" as="geometry">
            <Array as="points">
              <mxPoint x="464.5" y="184" />
              <mxPoint x="282.5" y="195" />
              <mxPoint x="282.5" y="285" />
              <mxPoint x="265" y="285" />
              <mxPoint x="265" y="375" />
              <mxPoint x="265" y="386" />
            </Array>
          </mxGeometry>
        </mxCell>
        <mxCell id="8-iE3QzW0I2eiYtSppjK-65" style="edgeStyle=orthogonalEdgeStyle;rounded=0;orthogonalLoop=1;jettySize=auto;html=1;noEdgeStyle=1;orthogonal=1;fillColor=#dae8fc;strokeColor=#6c8ebf;" parent="8-iE3QzW0I2eiYtSppjK-34" source="8-iE3QzW0I2eiYtSppjK-44" target="8-iE3QzW0I2eiYtSppjK-64" edge="1">
          <mxGeometry relative="1" as="geometry">
            <Array as="points">
              <mxPoint x="490.5" y="184" />
              <mxPoint x="370" y="208" />
            </Array>
          </mxGeometry>
        </mxCell>
        <mxCell id="8-iE3QzW0I2eiYtSppjK-67" style="edgeStyle=orthogonalEdgeStyle;rounded=0;orthogonalLoop=1;jettySize=auto;html=1;noEdgeStyle=1;orthogonal=1;fillColor=#dae8fc;strokeColor=#6c8ebf;" parent="8-iE3QzW0I2eiYtSppjK-34" source="8-iE3QzW0I2eiYtSppjK-44" target="8-iE3QzW0I2eiYtSppjK-66" edge="1">
          <mxGeometry relative="1" as="geometry">
            <Array as="points">
              <mxPoint x="477.5" y="186" />
              <mxPoint x="312.5" y="195" />
              <mxPoint x="312.5" y="285" />
              <mxPoint x="316.25" y="298" />
            </Array>
          </mxGeometry>
        </mxCell>
        <mxCell id="8-iE3QzW0I2eiYtSppjK-44" value="Exam item" style="whiteSpace=wrap;html=1;fillColor=#dae8fc;strokeColor=#6c8ebf;" parent="8-iE3QzW0I2eiYtSppjK-34" vertex="1">
          <mxGeometry x="440" y="130" width="75" height="40" as="geometry" />
        </mxCell>
        <mxCell id="8-iE3QzW0I2eiYtSppjK-45" style="edgeStyle=orthogonalEdgeStyle;rounded=0;orthogonalLoop=1;jettySize=auto;html=1;noEdgeStyle=1;orthogonal=1;fillColor=#dae8fc;strokeColor=#6c8ebf;" parent="8-iE3QzW0I2eiYtSppjK-34" source="8-iE3QzW0I2eiYtSppjK-46" target="8-iE3QzW0I2eiYtSppjK-36" edge="1">
          <mxGeometry relative="1" as="geometry">
            <Array as="points">
              <mxPoint x="262.5" y="94" />
              <mxPoint x="360" y="118" />
            </Array>
          </mxGeometry>
        </mxCell>
        <mxCell id="8-iE3QzW0I2eiYtSppjK-56" style="edgeStyle=orthogonalEdgeStyle;rounded=0;orthogonalLoop=1;jettySize=auto;html=1;noEdgeStyle=1;orthogonal=1;fillColor=#dae8fc;strokeColor=#6c8ebf;" parent="8-iE3QzW0I2eiYtSppjK-34" source="8-iE3QzW0I2eiYtSppjK-46" target="8-iE3QzW0I2eiYtSppjK-54" edge="1">
          <mxGeometry relative="1" as="geometry">
            <Array as="points">
              <mxPoint x="232.5" y="92" />
              <mxPoint x="70" y="118" />
            </Array>
          </mxGeometry>
        </mxCell>
        <mxCell id="8-iE3QzW0I2eiYtSppjK-61" style="edgeStyle=orthogonalEdgeStyle;rounded=0;orthogonalLoop=1;jettySize=auto;html=1;noEdgeStyle=1;orthogonal=1;fillColor=#dae8fc;strokeColor=#6c8ebf;" parent="8-iE3QzW0I2eiYtSppjK-34" source="8-iE3QzW0I2eiYtSppjK-46" target="8-iE3QzW0I2eiYtSppjK-35" edge="1">
          <mxGeometry relative="1" as="geometry">
            <Array as="points">
              <mxPoint x="247.5" y="94" />
              <mxPoint x="150" y="105" />
              <mxPoint x="150" y="195" />
              <mxPoint x="154.5" y="206" />
            </Array>
          </mxGeometry>
        </mxCell>
        <mxCell id="8-iE3QzW0I2eiYtSppjK-63" style="edgeStyle=orthogonalEdgeStyle;rounded=0;orthogonalLoop=1;jettySize=auto;html=1;exitX=0.5;exitY=1;exitDx=0;exitDy=0;noEdgeStyle=1;orthogonal=1;" parent="8-iE3QzW0I2eiYtSppjK-34" source="8-iE3QzW0I2eiYtSppjK-46" target="8-iE3QzW0I2eiYtSppjK-58" edge="1">
          <mxGeometry relative="1" as="geometry">
            <Array as="points">
              <mxPoint x="277.5" y="92" />
              <mxPoint x="545" y="105" />
              <mxPoint x="545" y="195" />
              <mxPoint x="545" y="195" />
              <mxPoint x="545" y="285" />
              <mxPoint x="545" y="285" />
              <mxPoint x="545" y="375" />
              <mxPoint x="285" y="388" />
            </Array>
          </mxGeometry>
        </mxCell>
        <mxCell id="8-iE3QzW0I2eiYtSppjK-46" value="Teacher" style="whiteSpace=wrap;html=1;fillColor=#dae8fc;strokeColor=#6c8ebf;" parent="8-iE3QzW0I2eiYtSppjK-34" vertex="1">
          <mxGeometry x="220" y="40" width="70" height="40" as="geometry" />
        </mxCell>
        <mxCell id="8-iE3QzW0I2eiYtSppjK-50" style="edgeStyle=orthogonalEdgeStyle;rounded=0;orthogonalLoop=1;jettySize=auto;html=1;noEdgeStyle=1;orthogonal=1;fillColor=#dae8fc;strokeColor=#6c8ebf;" parent="8-iE3QzW0I2eiYtSppjK-34" source="8-iE3QzW0I2eiYtSppjK-49" target="8-iE3QzW0I2eiYtSppjK-44" edge="1">
          <mxGeometry relative="1" as="geometry">
            <Array as="points">
              <mxPoint x="477.5" y="92" />
              <mxPoint x="493.75" y="118" />
            </Array>
          </mxGeometry>
        </mxCell>
        <mxCell id="8-iE3QzW0I2eiYtSppjK-49" value="Rubric" style="whiteSpace=wrap;html=1;fillColor=#dae8fc;strokeColor=#6c8ebf;" parent="8-iE3QzW0I2eiYtSppjK-34" vertex="1">
          <mxGeometry x="442.5" y="40" width="70" height="40" as="geometry" />
        </mxCell>
        <mxCell id="8-iE3QzW0I2eiYtSppjK-59" style="edgeStyle=orthogonalEdgeStyle;rounded=0;orthogonalLoop=1;jettySize=auto;html=1;noEdgeStyle=1;orthogonal=1;fillColor=#dae8fc;strokeColor=#6c8ebf;" parent="8-iE3QzW0I2eiYtSppjK-34" source="8-iE3QzW0I2eiYtSppjK-51" target="8-iE3QzW0I2eiYtSppjK-58" edge="1">
          <mxGeometry relative="1" as="geometry">
            <Array as="points">
              <mxPoint x="195.625" y="362" />
              <mxPoint x="245" y="388" />
            </Array>
          </mxGeometry>
        </mxCell>
        <mxCell id="8-iE3QzW0I2eiYtSppjK-51" value="Learner Respons" style="whiteSpace=wrap;html=1;fillColor=#dae8fc;strokeColor=#6c8ebf;" parent="8-iE3QzW0I2eiYtSppjK-34" vertex="1">
          <mxGeometry x="160.625" y="310" width="70" height="40" as="geometry" />
        </mxCell>
        <mxCell id="8-iE3QzW0I2eiYtSppjK-57" style="edgeStyle=orthogonalEdgeStyle;rounded=0;orthogonalLoop=1;jettySize=auto;html=1;noEdgeStyle=1;orthogonal=1;fillColor=#dae8fc;strokeColor=#6c8ebf;" parent="8-iE3QzW0I2eiYtSppjK-34" source="8-iE3QzW0I2eiYtSppjK-54" target="8-iE3QzW0I2eiYtSppjK-51" edge="1">
          <mxGeometry relative="1" as="geometry">
            <Array as="points">
              <mxPoint x="55" y="182" />
              <mxPoint x="92.5" y="195" />
              <mxPoint x="92.5" y="285" />
              <mxPoint x="175.625" y="298" />
            </Array>
          </mxGeometry>
        </mxCell>
        <mxCell id="8-iE3QzW0I2eiYtSppjK-54" value="Marker" style="whiteSpace=wrap;html=1;fillColor=#dae8fc;strokeColor=#6c8ebf;" parent="8-iE3QzW0I2eiYtSppjK-34" vertex="1">
          <mxGeometry x="20" y="130" width="70" height="40" as="geometry" />
        </mxCell>
        <mxCell id="8-iE3QzW0I2eiYtSppjK-58" value="Machine Scroing" style="whiteSpace=wrap;html=1;fillColor=#dae8fc;strokeColor=#6c8ebf;" parent="8-iE3QzW0I2eiYtSppjK-34" vertex="1">
          <mxGeometry x="230" y="400" width="70" height="40" as="geometry" />
        </mxCell>
        <mxCell id="8-iE3QzW0I2eiYtSppjK-68" style="edgeStyle=orthogonalEdgeStyle;rounded=0;orthogonalLoop=1;jettySize=auto;html=1;exitX=0;exitY=0.5;exitDx=0;exitDy=0;noEdgeStyle=1;orthogonal=1;fillColor=#dae8fc;strokeColor=#6c8ebf;" parent="8-iE3QzW0I2eiYtSppjK-34" source="8-iE3QzW0I2eiYtSppjK-64" target="8-iE3QzW0I2eiYtSppjK-66" edge="1">
          <mxGeometry relative="1" as="geometry">
            <Array as="points">
              <mxPoint x="392.5" y="272" />
              <mxPoint x="348.75" y="298" />
            </Array>
          </mxGeometry>
        </mxCell>
        <mxCell id="8-iE3QzW0I2eiYtSppjK-70" style="edgeStyle=orthogonalEdgeStyle;rounded=0;orthogonalLoop=1;jettySize=auto;html=1;noEdgeStyle=1;orthogonal=1;fillColor=#dae8fc;strokeColor=#6c8ebf;" parent="8-iE3QzW0I2eiYtSppjK-34" source="8-iE3QzW0I2eiYtSppjK-64" target="8-iE3QzW0I2eiYtSppjK-44" edge="1">
          <mxGeometry relative="1" as="geometry">
            <Array as="points">
              <mxPoint x="415" y="208" />
              <mxPoint x="503.5" y="184" />
            </Array>
          </mxGeometry>
        </mxCell>
        <mxCell id="8-iE3QzW0I2eiYtSppjK-64" value="Template" style="whiteSpace=wrap;html=1;fillColor=#dae8fc;strokeColor=#6c8ebf;" parent="8-iE3QzW0I2eiYtSppjK-34" vertex="1">
          <mxGeometry x="342.5" y="225" width="100" height="30" as="geometry" />
        </mxCell>
        <mxCell id="8-iE3QzW0I2eiYtSppjK-66" value="Translation" style="whiteSpace=wrap;html=1;fillColor=#dae8fc;strokeColor=#6c8ebf;" parent="8-iE3QzW0I2eiYtSppjK-34" vertex="1">
          <mxGeometry x="295" y="310" width="75" height="40" as="geometry" />
        </mxCell>
        <mxCell id="8-iE3QzW0I2eiYtSppjK-47" value="" style="shape=singleArrow;whiteSpace=wrap;html=1;arrowWidth=0.4;arrowSize=0.4;fontStyle=1;startSize=20;resizable=0;fillColor=#dae8fc;strokeColor=#6c8ebf;" parent="1" vertex="1">
          <mxGeometry x="55" y="410" width="80" height="60" as="geometry" />
        </mxCell>
        <mxCell id="8-iE3QzW0I2eiYtSppjK-71" value="" style="shape=image;html=1;verticalAlign=top;verticalLabelPosition=bottom;labelBackgroundColor=#ffffff;imageAspect=0;aspect=fixed;image=https://cdn2.iconfinder.com/data/icons/office-icon-set-3/128/users.png" parent="1" vertex="1">
          <mxGeometry x="394" y="280" width="50" height="50" as="geometry" />
        </mxCell>
        <mxCell id="8-iE3QzW0I2eiYtSppjK-72" value="" style="shape=image;html=1;verticalAlign=top;verticalLabelPosition=bottom;labelBackgroundColor=#ffffff;imageAspect=0;aspect=fixed;image=https://cdn2.iconfinder.com/data/icons/office-icon-set-3/128/users.png" parent="1" vertex="1">
          <mxGeometry x="434" y="300" width="50" height="50" as="geometry" />
        </mxCell>
        <mxCell id="8-iE3QzW0I2eiYtSppjK-73" value="" style="shape=image;html=1;verticalAlign=top;verticalLabelPosition=bottom;labelBackgroundColor=#ffffff;imageAspect=0;aspect=fixed;image=https://cdn2.iconfinder.com/data/icons/office-icon-set-3/128/users.png" parent="1" vertex="1">
          <mxGeometry x="344" y="300" width="50" height="50" as="geometry" />
        </mxCell>
        <mxCell id="8-iE3QzW0I2eiYtSppjK-74" value="" style="shape=image;html=1;verticalAlign=top;verticalLabelPosition=bottom;labelBackgroundColor=#ffffff;imageAspect=0;aspect=fixed;image=https://cdn2.iconfinder.com/data/icons/office-icon-set-3/128/users.png" parent="1" vertex="1">
          <mxGeometry x="220" y="280" width="50" height="50" as="geometry" />
        </mxCell>
        <mxCell id="8-iE3QzW0I2eiYtSppjK-75" value="" style="shape=image;html=1;verticalAlign=top;verticalLabelPosition=bottom;labelBackgroundColor=#ffffff;imageAspect=0;aspect=fixed;image=https://cdn2.iconfinder.com/data/icons/office-icon-set-3/128/users.png" parent="1" vertex="1">
          <mxGeometry x="260" y="300" width="50" height="50" as="geometry" />
        </mxCell>
        <mxCell id="8-iE3QzW0I2eiYtSppjK-76" value="" style="shape=image;html=1;verticalAlign=top;verticalLabelPosition=bottom;labelBackgroundColor=#ffffff;imageAspect=0;aspect=fixed;image=https://cdn2.iconfinder.com/data/icons/office-icon-set-3/128/users.png" parent="1" vertex="1">
          <mxGeometry x="170" y="300" width="50" height="50" as="geometry" />
        </mxCell>
        <mxCell id="8-iE3QzW0I2eiYtSppjK-77" value="" style="shape=image;html=1;verticalAlign=top;verticalLabelPosition=bottom;labelBackgroundColor=#ffffff;imageAspect=0;aspect=fixed;image=https://cdn2.iconfinder.com/data/icons/office-icon-set-3/128/users.png" parent="1" vertex="1">
          <mxGeometry x="590" y="280" width="50" height="50" as="geometry" />
        </mxCell>
        <mxCell id="8-iE3QzW0I2eiYtSppjK-78" value="" style="shape=image;html=1;verticalAlign=top;verticalLabelPosition=bottom;labelBackgroundColor=#ffffff;imageAspect=0;aspect=fixed;image=https://cdn2.iconfinder.com/data/icons/office-icon-set-3/128/users.png" parent="1" vertex="1">
          <mxGeometry x="630" y="300" width="50" height="50" as="geometry" />
        </mxCell>
        <mxCell id="8-iE3QzW0I2eiYtSppjK-79" value="" style="shape=image;html=1;verticalAlign=top;verticalLabelPosition=bottom;labelBackgroundColor=#ffffff;imageAspect=0;aspect=fixed;image=https://cdn2.iconfinder.com/data/icons/office-icon-set-3/128/users.png" parent="1" vertex="1">
          <mxGeometry x="540" y="300" width="50" height="50" as="geometry" />
        </mxCell>
        <mxCell id="8-iE3QzW0I2eiYtSppjK-81" value="" style="shape=image;html=1;verticalAlign=top;verticalLabelPosition=bottom;labelBackgroundColor=#ffffff;imageAspect=0;aspect=fixed;image=https://cdn2.iconfinder.com/data/icons/office-icon-set-3/128/users.png" parent="1" vertex="1">
          <mxGeometry x="280" y="210" width="50" height="50" as="geometry" />
        </mxCell>
        <mxCell id="8-iE3QzW0I2eiYtSppjK-82" value="" style="shape=image;html=1;verticalAlign=top;verticalLabelPosition=bottom;labelBackgroundColor=#ffffff;imageAspect=0;aspect=fixed;image=https://cdn2.iconfinder.com/data/icons/office-icon-set-3/128/users.png" parent="1" vertex="1">
          <mxGeometry x="320" y="230" width="50" height="50" as="geometry" />
        </mxCell>
        <mxCell id="8-iE3QzW0I2eiYtSppjK-83" value="" style="shape=image;html=1;verticalAlign=top;verticalLabelPosition=bottom;labelBackgroundColor=#ffffff;imageAspect=0;aspect=fixed;image=https://cdn2.iconfinder.com/data/icons/office-icon-set-3/128/users.png" parent="1" vertex="1">
          <mxGeometry x="230" y="230" width="50" height="50" as="geometry" />
        </mxCell>
        <mxCell id="8-iE3QzW0I2eiYtSppjK-84" value="" style="shape=image;html=1;verticalAlign=top;verticalLabelPosition=bottom;labelBackgroundColor=#ffffff;imageAspect=0;aspect=fixed;image=https://cdn2.iconfinder.com/data/icons/office-icon-set-3/128/users.png" parent="1" vertex="1">
          <mxGeometry x="494" y="210" width="50" height="50" as="geometry" />
        </mxCell>
        <mxCell id="8-iE3QzW0I2eiYtSppjK-85" value="" style="shape=image;html=1;verticalAlign=top;verticalLabelPosition=bottom;labelBackgroundColor=#ffffff;imageAspect=0;aspect=fixed;image=https://cdn2.iconfinder.com/data/icons/office-icon-set-3/128/users.png" parent="1" vertex="1">
          <mxGeometry x="534" y="230" width="50" height="50" as="geometry" />
        </mxCell>
        <mxCell id="8-iE3QzW0I2eiYtSppjK-86" value="" style="shape=image;html=1;verticalAlign=top;verticalLabelPosition=bottom;labelBackgroundColor=#ffffff;imageAspect=0;aspect=fixed;image=https://cdn2.iconfinder.com/data/icons/office-icon-set-3/128/users.png" parent="1" vertex="1">
          <mxGeometry x="444" y="230" width="50" height="50" as="geometry" />
        </mxCell>
        <mxCell id="8-iE3QzW0I2eiYtSppjK-87" value="" style="shape=image;html=1;verticalAlign=top;verticalLabelPosition=bottom;labelBackgroundColor=#ffffff;imageAspect=0;aspect=fixed;image=https://cdn2.iconfinder.com/data/icons/office-icon-set-3/128/users.png" parent="1" vertex="1">
          <mxGeometry x="380" y="150" width="50" height="50" as="geometry" />
        </mxCell>
        <mxCell id="8-iE3QzW0I2eiYtSppjK-88" value="" style="shape=image;html=1;verticalAlign=top;verticalLabelPosition=bottom;labelBackgroundColor=#ffffff;imageAspect=0;aspect=fixed;image=https://cdn2.iconfinder.com/data/icons/office-icon-set-3/128/users.png" parent="1" vertex="1">
          <mxGeometry x="420" y="170" width="50" height="50" as="geometry" />
        </mxCell>
        <mxCell id="8-iE3QzW0I2eiYtSppjK-89" value="" style="shape=image;html=1;verticalAlign=top;verticalLabelPosition=bottom;labelBackgroundColor=#ffffff;imageAspect=0;aspect=fixed;image=https://cdn2.iconfinder.com/data/icons/office-icon-set-3/128/users.png" parent="1" vertex="1">
          <mxGeometry x="330" y="170" width="50" height="50" as="geometry" />
        </mxCell>
        <mxCell id="L7OhxxbXozfgXkMh7VcP-4" value="" style="html=1;verticalLabelPosition=bottom;align=center;labelBackgroundColor=#ffffff;verticalAlign=top;strokeWidth=2;strokeColor=#0080F0;shadow=0;dashed=0;shape=mxgraph.ios7.icons.data;" vertex="1" parent="1">
          <mxGeometry x="-480" y="520" width="24" height="29.099999999999998" as="geometry" />
        </mxCell>
        <mxCell id="L7OhxxbXozfgXkMh7VcP-5" value="" style="html=1;verticalLabelPosition=bottom;align=center;labelBackgroundColor=#ffffff;verticalAlign=top;strokeWidth=2;strokeColor=#0080F0;shadow=0;dashed=0;shape=mxgraph.ios7.icons.data;" vertex="1" parent="1">
          <mxGeometry x="-10" y="550" width="120" height="130" as="geometry" />
        </mxCell>
        <mxCell id="L7OhxxbXozfgXkMh7VcP-6" value="" style="html=1;verticalLabelPosition=bottom;align=center;labelBackgroundColor=#ffffff;verticalAlign=top;strokeWidth=2;strokeColor=#0080F0;shadow=0;dashed=0;shape=mxgraph.ios7.icons.data;" vertex="1" parent="1">
          <mxGeometry x="580" y="550" width="200" height="279.1" as="geometry" />
        </mxCell>
      </root>
    </mxGraphModel>
  </diagram>
</mxfile>
